<?xml version="1.0" encoding="UTF-8"?>
<svg width="154px" height="105px" viewBox="0 0 154 105" version="1.1" xmlns="http://www.w3.org/2000/svg" xmlns:xlink="http://www.w3.org/1999/xlink">

    <title>logo</title>
    <desc>Created with Sketch.</desc>
    <defs></defs>
    <g id="Page-1" stroke="none" stroke-width="1" fill="none" fill-rule="evenodd">
        <g id="logo" fill-rule="nonzero">
            <polygon id="Shape" fill="#00AEEF" points="0 0 154 0 154 105 0 105"></polygon>
            <g id="Group" transform="translate(15.000000, 64.000000)" fill="#FFFFFF">
                <path d="M9.4,26.3 C4,26.3 -1.77635684e-15,22.1 -1.77635684e-15,16.9 C-1.77635684e-15,11.7 4,7.4 9.4,7.4 C12.8,7.4 15,8.7 16.7,10.5 L14.1,13.3 C12.8,12 11.5,11 9.4,11 C6.4,11 4.2,13.6 4.2,16.8 C4.2,20.1 6.4,22.7 9.6,22.7 C11.6,22.7 13,21.8 14.3,20.4 L16.8,22.9 C15.1,24.9 13,26.3 9.4,26.3 L9.4,26.3 Z M30.1,25.9 L30.1,23.7 C28.9,25.2 27,26.3 24.2,26.3 C20.8,26.3 17.7,24.3 17.7,20.7 L17.7,20.6 C17.7,16.7 20.8,14.8 25.1,14.8 C27.3,14.8 28.7,15.1 30.1,15.6 L30.1,15.2 C30.1,12.7 28.5,11.3 25.6,11.3 C23.6,11.3 22.1,11.7 20.4,12.4 L19.3,9 C21.3,8.1 23.3,7.5 26.2,7.5 C31.6,7.5 34.2,10.3 34.2,15.2 L34.2,26 L30.1,26 L30.1,25.9 Z M30.2,18.2 C29.1,17.8 27.7,17.5 26,17.5 C23.4,17.5 21.8,18.6 21.8,20.4 L21.8,20.5 C21.8,22.2 23.3,23.2 25.3,23.2 C28.1,23.2 30.1,21.7 30.1,19.4 L30.1,18.2 L30.2,18.2 Z M42.3,20.2 C42.3,21.8 43.1,22.5 44.5,22.5 C45.4,22.5 46.3,22.3 47.1,21.9 L47.1,25.3 C46.1,25.9 44.9,26.2 43.4,26.2 C40.3,26.2 38.2,24.9 38.2,20.9 L38.2,11.3 L35.9,11.3 L35.9,7.7 L38.2,7.7 L38.2,2.7 L42.4,2.7 L42.4,7.7 L47.3,7.7 L47.3,11.3 L42.4,11.3 L42.4,20.2 L42.3,20.2 Z M60.7,25.9 L60.7,23.7 C59.5,25.2 57.6,26.3 54.8,26.3 C51.4,26.3 48.3,24.3 48.3,20.7 L48.3,20.6 C48.3,16.7 51.4,14.8 55.7,14.8 C57.9,14.8 59.3,15.1 60.7,15.6 L60.7,15.2 C60.7,12.7 59.1,11.3 56.2,11.3 C54.2,11.3 52.7,11.7 51,12.4 L50,9 C52,8.1 54,7.5 56.9,7.5 C62.3,7.5 64.9,10.3 64.9,15.2 L64.9,26 L60.7,26 L60.7,25.9 Z M60.8,18.2 C59.7,17.8 58.3,17.5 56.6,17.5 C54,17.5 52.4,18.6 52.4,20.4 L52.4,20.5 C52.4,22.2 53.9,23.2 55.9,23.2 C58.7,23.2 60.7,21.7 60.7,19.4 L60.7,18.2 L60.8,18.2 Z M86.2,22.4 L90.9,8.1 L93.7,8.1 L87.4,26 L85.1,26 L80.3,12 L75.5,26 L73.2,26 L67,8.1 L69.8,8.1 L74.5,22.4 L79.3,8.1 L81.5,8.1 L86.2,22.4 L86.2,22.4 Z M96.4,25.9 L96.4,8.1 L99,8.1 L99,25.9 L96.4,25.9 Z M118.6,25.9 L115.4,25.9 L109,17.6 L105.4,21.3 L105.4,25.9 L102.7,25.9 L102.7,0.8 L105.4,0.8 L105.4,18.1 L115,8.1 L118.3,8.1 L110.8,15.7 L118.6,25.9 L118.6,25.9 Z M120.7,25.9 L120.7,8.1 L123.3,8.1 L123.3,25.9 L120.7,25.9 Z" id="Shape"></path>
                <circle id="Oval" cx="97.7" cy="2.8" r="1.7"></circle>
                <circle id="Oval" cx="122" cy="2.8" r="1.7"></circle>
            </g>
        </g>
    </g>
</svg>